<?xml version="1.0" encoding="UTF-8"?>
<!-- Generator: Adobe Illustrator 16.0.0, SVG Export Plug-In . SVG Version: 6.00 Build 0)  -->
<!DOCTYPE svg PUBLIC "-//W3C//DTD SVG 1.1//EN" "http://www.w3.org/Graphics/SVG/1.1/DTD/svg11.dtd">
<svg version="1.1" id="Layer_1" xmlns="http://www.w3.org/2000/svg" xmlns:xlink="http://www.w3.org/1999/xlink" x="0px" y="0px" width="274.985px" height="354.587px" viewBox="0 0 274.985 354.587" enable-background="new 0 0 274.985 354.587" xml:space="preserve">
<g>
	<path fill="#242525" d="M1.208,179.588v-7.032H0.417c-0.136,0-0.234-0.028-0.297-0.083c-0.059-0.053-0.094-0.124-0.094-0.212   c0-0.089,0.035-0.159,0.094-0.216c0.063-0.055,0.161-0.079,0.297-0.079h3.706c0.737,0,1.334,0.211,1.794,0.633   c0.462,0.425,0.69,0.92,0.69,1.495c0,0.721-0.383,1.297-1.155,1.745c0.609,0.218,1.059,0.513,1.344,0.875   c0.285,0.367,0.427,0.77,0.427,1.205c0,0.396-0.093,0.753-0.279,1.082c-0.189,0.322-0.475,0.6-0.859,0.832   c-0.385,0.228-0.804,0.342-1.26,0.342H0.417c-0.136,0-0.234-0.033-0.297-0.082c-0.059-0.061-0.094-0.126-0.094-0.215   c0-0.09,0.035-0.16,0.094-0.213c0.063-0.053,0.161-0.077,0.297-0.077H1.208z M1.803,175.614h2.085c0.444,0,0.847-0.083,1.216-0.249   c0.289-0.13,0.511-0.317,0.668-0.568c0.161-0.243,0.238-0.499,0.238-0.753c0-0.371-0.171-0.715-0.517-1.022   c-0.349-0.312-0.798-0.466-1.353-0.466H1.803V175.614z M1.803,179.588h2.981c0.379,0,0.709-0.085,0.988-0.257   c0.279-0.17,0.495-0.379,0.642-0.627c0.143-0.243,0.216-0.5,0.216-0.772c0-0.294-0.104-0.585-0.314-0.868   c-0.209-0.28-0.493-0.494-0.863-0.639c-0.375-0.141-0.879-0.214-1.533-0.214H1.803V179.588z"/>
	<path fill="#242525" d="M30.837,172.556v4.922c0,0.828-0.275,1.528-0.827,2.082c-0.554,0.563-1.22,0.848-2,0.848   c-0.523,0-0.994-0.119-1.397-0.347c-0.407-0.232-0.755-0.578-1.039-1.038c-0.285-0.468-0.427-0.982-0.427-1.545v-4.922h-0.501   c-0.139,0-0.242-0.028-0.304-0.083c-0.057-0.053-0.089-0.124-0.089-0.212c0-0.089,0.037-0.167,0.098-0.224   c0.061-0.047,0.157-0.071,0.295-0.071h2.177c0.141,0,0.24,0.028,0.303,0.079c0.057,0.057,0.09,0.126,0.09,0.216   c0,0.088-0.033,0.159-0.09,0.212c-0.063,0.055-0.163,0.083-0.303,0.083h-1.085v4.922c0,0.649,0.22,1.207,0.664,1.658   c0.444,0.452,0.969,0.681,1.578,0.681c0.391,0,0.741-0.094,1.065-0.265c0.317-0.184,0.599-0.457,0.841-0.823   c0.238-0.372,0.362-0.782,0.362-1.251v-4.922h-1.089c-0.138,0-0.238-0.028-0.301-0.083c-0.059-0.053-0.089-0.124-0.089-0.212   c0-0.089,0.03-0.159,0.089-0.216c0.063-0.051,0.163-0.079,0.301-0.079h2.175c0.143,0,0.242,0.028,0.304,0.079   c0.059,0.057,0.089,0.126,0.089,0.216c0,0.088-0.031,0.159-0.089,0.212c-0.062,0.055-0.161,0.083-0.304,0.083H30.837z"/>
	<path fill="#242525" d="M50.324,176.211v3.369h4.533v-1.736c0-0.142,0.024-0.242,0.08-0.304c0.055-0.057,0.126-0.089,0.211-0.089   c0.092,0,0.161,0.032,0.216,0.089c0.055,0.062,0.082,0.162,0.082,0.304v2.327h-6.506c-0.137,0-0.24-0.025-0.297-0.086   c-0.063-0.049-0.096-0.118-0.096-0.207c0-0.09,0.033-0.155,0.096-0.213c0.057-0.053,0.161-0.085,0.297-0.085h0.794v-7.024h-0.794   c-0.137,0-0.24-0.028-0.297-0.083c-0.063-0.053-0.096-0.124-0.096-0.212c0-0.089,0.033-0.159,0.096-0.216   c0.057-0.051,0.161-0.079,0.297-0.079h6.196v2.028c0,0.141-0.024,0.238-0.079,0.297c-0.055,0.065-0.126,0.098-0.216,0.098   c-0.088,0-0.157-0.032-0.212-0.098c-0.057-0.059-0.082-0.157-0.082-0.297v-1.438h-4.223v3.067h2.113v-0.668   c0-0.141,0.027-0.24,0.082-0.306c0.053-0.059,0.13-0.089,0.216-0.089c0.086,0,0.153,0.03,0.212,0.089   c0.055,0.065,0.085,0.165,0.085,0.306v1.922c0,0.138-0.03,0.238-0.085,0.3c-0.059,0.063-0.126,0.096-0.212,0.096   c-0.085,0-0.163-0.033-0.216-0.096c-0.055-0.062-0.082-0.162-0.082-0.3v-0.666H50.324z"/>
	<path fill="#242525" d="M79.386,180.175h-0.758l-4.341-7.35v6.763h1.087c0.141,0,0.247,0.024,0.306,0.077   c0.063,0.053,0.094,0.123,0.094,0.213c0,0.089-0.031,0.154-0.094,0.215c-0.059,0.049-0.165,0.082-0.306,0.082h-2.168   c-0.145,0-0.249-0.033-0.308-0.082c-0.063-0.061-0.094-0.126-0.094-0.215c0-0.09,0.031-0.16,0.094-0.213   c0.059-0.053,0.163-0.077,0.308-0.077h0.491v-7.032H72.9c-0.136,0-0.236-0.028-0.299-0.083c-0.061-0.053-0.089-0.124-0.089-0.212   c0-0.089,0.028-0.159,0.089-0.216c0.063-0.055,0.163-0.079,0.299-0.079h1.55l4.345,7.358v-6.768H77.71   c-0.14,0-0.24-0.028-0.303-0.083c-0.059-0.053-0.092-0.124-0.092-0.212c0-0.089,0.029-0.159,0.088-0.216   c0.061-0.055,0.163-0.079,0.307-0.079h2.175c0.137,0,0.241,0.024,0.302,0.079c0.061,0.057,0.087,0.126,0.087,0.216   c0,0.088-0.026,0.159-0.087,0.212c-0.061,0.055-0.165,0.083-0.302,0.083h-0.499V180.175z"/>
	<path fill="#242525" d="M104.361,176.087c0,0.79-0.161,1.517-0.479,2.191c-0.318,0.666-0.758,1.191-1.317,1.566   c-0.556,0.375-1.159,0.563-1.798,0.563c-0.949,0-1.786-0.404-2.506-1.21c-0.727-0.81-1.087-1.842-1.087-3.11   c0-1.267,0.36-2.297,1.087-3.105c0.721-0.805,1.558-1.208,2.506-1.208c0.64,0,1.242,0.187,1.796,0.566   c0.558,0.371,0.996,0.892,1.318,1.56C104.198,174.57,104.361,175.299,104.361,176.087 M103.765,176.087   c0-0.955-0.279-1.814-0.837-2.58c-0.556-0.766-1.277-1.145-2.161-1.145c-0.825,0-1.537,0.369-2.122,1.091   c-0.589,0.731-0.88,1.607-0.88,2.633c0,1.102,0.306,1.993,0.922,2.687c0.613,0.696,1.308,1.043,2.079,1.043   c0.884,0,1.604-0.384,2.161-1.141C103.486,177.915,103.765,177.052,103.765,176.087"/>
	<path fill="#242525" d="M127.123,172.556v-0.2c0-0.138,0.024-0.238,0.079-0.299c0.051-0.063,0.126-0.091,0.216-0.091   c0.085,0,0.159,0.028,0.211,0.091c0.053,0.062,0.082,0.161,0.082,0.299v1.501c0,0.141-0.028,0.244-0.082,0.303   c-0.053,0.062-0.126,0.092-0.211,0.092c-0.086,0-0.153-0.028-0.21-0.083c-0.051-0.055-0.083-0.148-0.085-0.275   c-0.026-0.391-0.226-0.745-0.607-1.059c-0.383-0.316-0.879-0.467-1.499-0.467c-0.65,0-1.167,0.167-1.552,0.497   c-0.381,0.334-0.574,0.729-0.574,1.185c0,0.234,0.049,0.444,0.163,0.635c0.104,0.191,0.246,0.346,0.425,0.466   c0.177,0.12,0.377,0.214,0.605,0.292c0.222,0.071,0.574,0.146,1.051,0.222c0.8,0.137,1.352,0.267,1.655,0.401   c0.411,0.185,0.715,0.436,0.924,0.764c0.208,0.321,0.31,0.7,0.31,1.138c0,0.676-0.269,1.25-0.81,1.727   c-0.536,0.473-1.257,0.713-2.171,0.713c-1.022,0-1.841-0.322-2.456-0.966v0.338c0,0.139-0.028,0.245-0.083,0.306   c-0.051,0.057-0.123,0.086-0.208,0.086s-0.157-0.029-0.212-0.086c-0.059-0.061-0.085-0.167-0.085-0.306v-1.628   c0-0.143,0.027-0.242,0.08-0.308c0.055-0.063,0.126-0.089,0.218-0.089c0.082,0,0.149,0.025,0.202,0.081   c0.057,0.06,0.083,0.146,0.089,0.276c0.025,0.43,0.255,0.82,0.69,1.174c0.438,0.355,1.026,0.53,1.766,0.53   c0.737,0,1.324-0.184,1.751-0.554c0.426-0.371,0.642-0.808,0.642-1.314c0-0.308-0.082-0.583-0.247-0.823   c-0.165-0.24-0.405-0.432-0.727-0.569c-0.226-0.096-0.692-0.214-1.407-0.333c-0.973-0.163-1.68-0.414-2.11-0.75   c-0.429-0.338-0.646-0.82-0.646-1.438s0.247-1.15,0.739-1.597c0.497-0.441,1.145-0.666,1.953-0.666   C125.818,171.774,126.528,172.037,127.123,172.556"/>
	<path fill="#242525" d="M175.467,177.431h-3.871l-0.794,2.157h1.13c0.141,0,0.24,0.021,0.301,0.077   c0.058,0.058,0.092,0.123,0.092,0.213c0,0.089-0.034,0.154-0.092,0.215c-0.061,0.053-0.16,0.082-0.301,0.082h-2.203   c-0.141,0-0.24-0.029-0.299-0.082c-0.064-0.061-0.094-0.126-0.094-0.215c0-0.09,0.029-0.155,0.094-0.213   c0.059-0.057,0.158-0.077,0.299-0.077h0.458l2.604-7.038h-1.741c-0.145,0-0.244-0.022-0.306-0.078   c-0.061-0.053-0.088-0.124-0.088-0.212c0-0.089,0.027-0.159,0.088-0.216c0.062-0.051,0.161-0.079,0.306-0.079h2.967l2.876,7.623   h0.457c0.137,0,0.243,0.021,0.3,0.077c0.06,0.058,0.094,0.123,0.094,0.213c0,0.089-0.034,0.154-0.094,0.215   c-0.057,0.053-0.163,0.082-0.3,0.082h-2.196c-0.147,0-0.249-0.029-0.308-0.082c-0.063-0.061-0.094-0.126-0.094-0.215   c0-0.09,0.03-0.155,0.094-0.213c0.059-0.057,0.16-0.077,0.308-0.077h1.122L175.467,177.431z M175.244,176.84l-1.629-4.29h-0.22   l-1.58,4.29H175.244z"/>
	<path fill="#242525" d="M198.084,172.556v7.024h2.02c0.137,0,0.238,0.032,0.3,0.085c0.062,0.058,0.094,0.123,0.094,0.213   c0,0.089-0.032,0.154-0.094,0.207c-0.062,0.061-0.163,0.086-0.3,0.086h-4.635c-0.139,0-0.238-0.025-0.301-0.086   c-0.059-0.053-0.092-0.118-0.092-0.207c0-0.09,0.033-0.155,0.092-0.213c0.063-0.053,0.162-0.085,0.301-0.085h2.024v-7.024h-2.024   c-0.139,0-0.238-0.028-0.301-0.083c-0.059-0.053-0.092-0.124-0.092-0.212c0-0.089,0.033-0.159,0.092-0.216   c0.063-0.051,0.162-0.079,0.301-0.079h4.635c0.137,0,0.238,0.028,0.3,0.079c0.062,0.057,0.094,0.126,0.094,0.216   c0,0.088-0.032,0.159-0.094,0.212c-0.062,0.055-0.163,0.083-0.3,0.083H198.084z"/>
	<path fill="#242525" d="M220.123,176.511v3.069h1.087c0.149,0,0.249,0.032,0.308,0.085c0.061,0.058,0.094,0.123,0.094,0.213   c0,0.089-0.033,0.158-0.094,0.207c-0.059,0.061-0.158,0.086-0.308,0.086h-2.466c-0.145,0-0.24-0.025-0.304-0.086   c-0.063-0.049-0.093-0.118-0.093-0.207c0-0.09,0.029-0.155,0.093-0.213c0.063-0.053,0.159-0.085,0.304-0.085h0.79v-7.024h-0.79   c-0.145,0-0.24-0.028-0.304-0.079c-0.063-0.057-0.093-0.128-0.093-0.216c0-0.089,0.029-0.159,0.093-0.216   c0.063-0.051,0.159-0.079,0.304-0.079h3.563c0.735,0,1.351,0.232,1.851,0.698c0.506,0.464,0.758,0.992,0.758,1.572   c0,0.421-0.154,0.82-0.465,1.191c-0.311,0.375-0.834,0.68-1.567,0.929c0.424,0.291,0.788,0.621,1.085,0.983   c0.3,0.367,0.78,1.116,1.434,2.241h0.45c0.143,0,0.245,0.032,0.308,0.085c0.057,0.058,0.09,0.123,0.09,0.213   c0,0.089-0.033,0.158-0.09,0.207c-0.063,0.061-0.165,0.086-0.308,0.086h-0.782c-0.732-1.3-1.299-2.174-1.693-2.62   c-0.401-0.446-0.859-0.794-1.381-1.04H220.123z M220.123,175.92h1.61c0.513,0,0.978-0.092,1.397-0.279   c0.419-0.188,0.721-0.405,0.91-0.66c0.189-0.25,0.285-0.509,0.285-0.774c0-0.389-0.2-0.764-0.592-1.118   c-0.396-0.356-0.879-0.534-1.445-0.534h-2.166V175.92z"/>
	<path fill="#242525" d="M244.379,176.211v3.369h4.537v-1.736c0-0.142,0.022-0.242,0.077-0.304c0.054-0.057,0.126-0.089,0.214-0.089   c0.09,0,0.158,0.032,0.214,0.089c0.053,0.062,0.081,0.162,0.081,0.304v2.327h-6.506c-0.141,0-0.24-0.025-0.301-0.086   c-0.06-0.049-0.092-0.118-0.092-0.207c0-0.09,0.032-0.155,0.092-0.213c0.061-0.053,0.16-0.085,0.301-0.085h0.793v-7.024h-0.793   c-0.141,0-0.24-0.028-0.301-0.083c-0.06-0.053-0.092-0.124-0.092-0.212c0-0.089,0.032-0.159,0.092-0.216   c0.061-0.051,0.16-0.079,0.301-0.079h6.197v2.028c0,0.141-0.025,0.238-0.08,0.297c-0.053,0.065-0.126,0.098-0.216,0.098   c-0.089,0-0.157-0.032-0.216-0.098c-0.053-0.059-0.077-0.157-0.077-0.297v-1.438h-4.226v3.067h2.111v-0.668   c0-0.141,0.027-0.24,0.084-0.306c0.055-0.059,0.129-0.089,0.218-0.089c0.085,0,0.153,0.03,0.212,0.089   c0.055,0.065,0.084,0.165,0.084,0.306v1.922c0,0.138-0.029,0.238-0.084,0.3c-0.059,0.063-0.127,0.096-0.212,0.096   c-0.089,0-0.163-0.033-0.218-0.096c-0.057-0.062-0.084-0.162-0.084-0.3v-0.666H244.379z"/>
	<path fill="#242525" d="M274.103,172.843v-0.199c0-0.139,0.028-0.238,0.084-0.3c0.051-0.063,0.124-0.091,0.212-0.091   c0.089,0,0.158,0.028,0.216,0.091c0.055,0.062,0.081,0.161,0.081,0.3v1.5c0,0.141-0.026,0.244-0.081,0.303   c-0.058,0.062-0.127,0.092-0.216,0.092c-0.086,0-0.153-0.028-0.206-0.083s-0.083-0.148-0.09-0.275   c-0.021-0.391-0.226-0.745-0.603-1.059c-0.385-0.316-0.882-0.467-1.501-0.467c-0.649,0-1.162,0.167-1.546,0.497   c-0.389,0.334-0.578,0.729-0.578,1.185c0,0.234,0.051,0.444,0.161,0.635c0.106,0.191,0.251,0.346,0.428,0.466   c0.179,0.12,0.377,0.214,0.606,0.292c0.221,0.071,0.57,0.146,1.049,0.222c0.801,0.137,1.354,0.267,1.66,0.401   c0.403,0.185,0.708,0.436,0.918,0.764c0.208,0.321,0.313,0.7,0.313,1.138c0,0.674-0.271,1.252-0.806,1.725   c-0.542,0.477-1.265,0.717-2.18,0.717c-1.018,0-1.838-0.326-2.453-0.966v0.339c0,0.138-0.024,0.24-0.082,0.301   c-0.053,0.061-0.124,0.086-0.213,0.086c-0.082,0-0.149-0.025-0.213-0.086c-0.055-0.061-0.081-0.163-0.081-0.301v-1.631   c0-0.143,0.026-0.242,0.081-0.308c0.054-0.063,0.121-0.089,0.213-0.089c0.085,0,0.152,0.025,0.209,0.081   c0.053,0.06,0.084,0.146,0.086,0.276c0.024,0.432,0.254,0.822,0.692,1.172c0.434,0.355,1.022,0.534,1.761,0.534   c0.744,0,1.326-0.184,1.754-0.554c0.428-0.371,0.642-0.811,0.642-1.316c0-0.308-0.082-0.583-0.247-0.823   c-0.163-0.24-0.407-0.432-0.727-0.569c-0.227-0.096-0.692-0.215-1.407-0.332c-0.976-0.164-1.68-0.414-2.109-0.75   c-0.43-0.338-0.646-0.82-0.646-1.438s0.244-1.15,0.738-1.597c0.496-0.441,1.147-0.666,1.953-0.666   C272.802,172.061,273.51,172.324,274.103,172.843"/>
	<polygon fill="#242525" points="-0.007,353.553 24.245,353.553 24.245,195.468 232.561,195.468 232.561,353.553 242.703,353.553    242.703,284.575 234.601,284.575 234.601,195.468 273.65,195.468 273.65,193.04 -0.007,193.04  "/>
	<path fill="#242525" d="M168.755,90.126v20.196h22.809v4.7c0,6.791-1.916,12.364-5.569,16.539   c-3.129,3.382-6.988,5.479-11.558,6.404v21.886c11.411-1.065,21.077-5.445,29.314-13.836c8.536-9.051,11.841-19.675,11.841-37.784   V90.126H168.755z"/>
	<rect x="0.044" y="35.104" fill="#242525" width="24.22" height="123.972"/>
	<polygon fill="#242525" points="88.495,35.104 56.284,102.139 34.404,56.854 34.404,106.84 48.099,133.828 64.464,133.828    88.146,86.815 88.146,159.076 112.35,159.076 112.35,35.104  "/>
	<path fill="#242525" d="M153.259,132.086c-4.875-5.747-5.921-10.617-5.921-34.996c0-24.552,1.396-29.081,5.921-34.825   c2.905-3.296,6.614-5.394,11.036-6.217V34.252c-11.293,0.918-20.957,5.372-28.968,13.387c-5.398,5.396-8.709,11.491-10.1,18.632   c-1.393,6.964-2.089,17.233-2.089,30.819c0,13.578,0.697,23.855,2.089,30.819c1.391,6.96,4.702,13.228,10.1,18.63   c8.011,8.013,17.675,12.466,28.968,13.382v-21.755C159.754,137.401,156.051,135.41,153.259,132.086"/>
	<path fill="#242525" d="M174.437,34.334v21.85c8.671,1.71,14.147,7.591,16.606,17.575h24.382   C212.34,53.667,199,36.615,174.437,34.334"/>
	<polygon fill="#00A97D" points="66.388,249.946 112.35,249.946 112.35,229.571 45.84,229.571 45.84,299.571 66.388,299.571  "/>
	<path fill="#00A97D" d="M108.175,278.675c-5.05-5.051-12.884-8.357-23.159-8.357c-3.048,0-5.901,0.42-8.465,1.1v18.652   c1.468-0.379,3.12-0.603,4.98-0.603c10.97,0,15.152,8.011,15.152,22.289c0,7.836-0.872,14.45-4.877,18.457   c-2.786,2.786-6.443,4.007-10.792,4.007c-1.637,0-3.116-0.183-4.463-0.513v20.685c1.438,0.127,2.92,0.195,4.463,0.195   c12.881,0,21.764-4.528,27.335-10.096c9.051-9.057,10.965-18.807,10.965-32.735C119.316,300.088,117.923,288.424,108.175,278.675"/>
	<polygon fill="#00A97D" points="172.324,314.546 156.541,314.546 199.026,229.571 174.3,229.571 131.814,314.546 131.814,335.96    172.324,335.96  "/>
	<polygon fill="#00A97D" points="204.248,314.546 204.248,284.575 182.484,284.575 182.484,353.545 204.248,353.545 204.248,335.96    215.565,335.96 215.565,314.546  "/>
	<path fill="#00A97D" d="M66.409,318.892H43.822c0.696,9.057,2.439,18.11,10.098,25.771c2.967,2.97,7.188,5.629,12.489,7.461   V318.892z"/>
	<polygon fill="#242525" points="242.703,90.369 234.269,90.369 234.269,16.459 232.197,16.459 232.197,159.104 234.269,159.104    234.269,159.076 242.703,159.076  "/>
	<polygon fill="#00A97D" points="123.24,0 123.24,15.368 -0.025,15.368 -0.025,18.048 123.24,18.048 123.24,18.101 273.65,18.101    273.65,0  "/>
</g>
</svg>